File Size
Format : MPEG-4
Format profile : Base Media
Codec ID : isom
File size : 3.90 GiB
Duration : 3h 52mn
Overall bit rate : 2 399 Kbps

Video
ID : 1
Format : AVC
Format/Info : Advanced Video Codec
Format profile : High@L4.1
Format settings, CABAC : Yes
Format settings, ReFrames : 3 frames
Codec ID : avc1
Codec ID/Info : Advanced Video Coding
Duration : 3h 52mn
Bit rate mode : Variable
Bit rate : 1 884 Kbps
Maximum bit rate : 13.3 Mbps
Width : 1 280 pixels
Height : 720 pixels
Display aspect ratio : 16:9
Frame rate mode : Constant
Frame rate : 25.000 fps
Resolution : 24 bits
Colorimetry : 4:2:0
Scan type : Progressive
Bits/(Pixel*Frame) : 0.082
Stream size : 3.07 GiB (79%)

Audio #1
ID : 2
Format : AAC
Format/Info : Advanced Audio Codec
Format version : Version 4
Format profile : LC
Format settings, SBR : No
Codec ID : 40
Duration : 3h 52mn
Bit rate mode : Variable
Bit rate : 128 Kbps
Maximum bit rate : 140 Kbps
Channel(s) : 2 channels
Channel positions : L R
Sampling rate : 48.0 KHz
Resolution : 16 bits
Stream size : 213 MiB (5%)

Audio #2
ID : 3
Format : AAC
Format/Info : Advanced Audio Codec
Format version : Version 4
Format profile : LC
Format settings, SBR : No
Codec ID : 40
Duration : 3h 52mn
Bit rate mode : Variable
Bit rate : 384 Kbps
Maximum bit rate : 403 Kbps
Channel(s) : 6 channels
Channel positions : Front: L C R, Rear: L R, LFE
Sampling rate : 48.0 KHz
Resolution : 16 bits
Stream size : 636 MiB (16%)

English SRT : N/A

Language : English